<svg xmlns="http://www.w3.org/2000/svg" width="19" height="15" viewBox="0 0 19 15">
    <g fill="#D29751" fill-rule="evenodd">
        <path d="M.715 5.428a.712.712 0 0 1-.51-1.213A12.931 12.931 0 0 1 9.48.342c3.315 0 6.471 1.242 8.889 3.497a.709.709 0 0 1 .032 1.01.72.72 0 0 1-1.01.032A11.553 11.553 0 0 0 9.48 1.766a11.51 11.51 0 0 0-8.255 3.45.714.714 0 0 1-.51.212"/>
        <path d="M3.492 8.12a.72.72 0 0 1-.509-.212.709.709 0 0 1 .004-1.007 9.004 9.004 0 0 1 6.36-2.605c2.34 0 4.56.889 6.25 2.502a.708.708 0 0 1 .02 1.009.717.717 0 0 1-1.009.022A7.586 7.586 0 0 0 9.346 5.72a7.57 7.57 0 0 0-5.35 2.193.718.718 0 0 1-.504.206"/>
        <ellipse cx="9.104" cy="13.026" rx="1.979" ry="1.974"/>
        <path d="M12.549 10.556a.717.717 0 0 1-.476-.18c-.728-.648-1.719-1.004-2.79-1.004-1.058 0-2.04.348-2.766.981a.678.678 0 0 1-.518.175.707.707 0 0 1-.491-.242.711.711 0 0 1 .067-1.004c.987-.861 2.304-1.336 3.708-1.336 1.423 0 2.752.486 3.742 1.365a.712.712 0 0 1-.476 1.245"/>
    </g>
</svg>
